<?xml version="1.0" standalone="no"?>
<!DOCTYPE svg PUBLIC "-//W3C//DTD SVG 20010904//EN"
 "http://www.w3.org/TR/2001/REC-SVG-20010904/DTD/svg10.dtd">
<svg version="1.0" xmlns="http://www.w3.org/2000/svg"
 width="160.000000pt" height="160.000000pt" viewBox="0 0 160.000000 160.000000"
 preserveAspectRatio="xMidYMid meet">
<metadata>
Created by potrace 1.11, written by Peter Selinger 2001-2013
</metadata>
<g transform="translate(0.000000,160.000000) scale(0.100000,-0.100000)"
fill="#000000" stroke="none">
<path d="M320 1310 l0 -50 -60 0 -60 0 0 -50 0 -50 -50 0 -50 0 2 -457 3 -458
698 -1 697 -2 0 459 0 459 -50 0 -50 0 0 50 0 50 -60 0 -60 0 0 50 0 51 -107
-3 c-88 -2 -108 -6 -108 -18 0 -12 18 -16 88 -18 l87 -3 0 -29 c0 -24 -5 -29
-27 -32 -17 -2 -28 -9 -28 -18 0 -12 18 -16 88 -18 l87 -3 0 -29 0 -30 -560 0
-560 0 0 30 0 29 88 3 c69 2 87 6 87 18 0 9 -11 16 -27 18 -23 3 -28 8 -28 32
l0 29 88 3 c69 2 87 6 87 18 0 12 -20 16 -107 18 l-108 3 0 -51z m1140 -609
l0 -418 -660 0 -660 0 0 419 0 418 660 0 660 0 0 -419z"/>
<path d="M928 994 c-2 -1 -34 -5 -73 -8 -60 -6 -150 -15 -191 -20 -7 -1 -19
-8 -28 -15 -13 -11 -16 -39 -16 -175 l0 -161 -43 3 c-39 3 -47 0 -70 -28 -34
-39 -35 -80 -3 -117 34 -39 98 -39 132 0 23 27 24 34 24 191 l0 163 88 8 c48
4 95 9 105 10 10 2 37 5 60 7 l42 3 3 -111 3 -112 -44 5 c-40 5 -46 2 -71 -28
-23 -27 -27 -39 -22 -68 8 -50 37 -76 86 -76 28 0 47 7 62 23 22 22 23 29 26
267 l3 244 -35 -1 c-20 -1 -37 -2 -38 -4z m32 -66 c0 -15 -3 -28 -7 -29 -5 0
-15 -2 -23 -3 -19 -4 -106 -13 -197 -22 l-73 -6 0 26 c0 31 5 33 85 41 149 14
180 18 183 20 1 1 9 2 17 2 10 0 15 -10 15 -29z m-23 -336 c24 -15 25 -57 3
-77 -20 -18 -24 -18 -48 -4 -15 8 -28 24 -30 36 -5 37 42 66 75 45z m-333 -28
c24 -23 19 -51 -10 -71 -43 -28 -89 15 -64 61 15 30 50 34 74 10z"/>
<path d="M184 349 c-10 -17 13 -36 27 -22 12 12 4 33 -11 33 -5 0 -12 -5 -16
-11z"/>
<path d="M264 349 c-10 -17 13 -36 27 -22 12 12 4 33 -11 33 -5 0 -12 -5 -16
-11z"/>
<path d="M344 349 c-10 -17 13 -36 27 -22 12 12 4 33 -11 33 -5 0 -12 -5 -16
-11z"/>
<path d="M424 349 c-10 -17 13 -36 27 -22 12 12 4 33 -11 33 -5 0 -12 -5 -16
-11z"/>
<path d="M504 349 c-10 -17 13 -36 27 -22 12 12 4 33 -11 33 -5 0 -12 -5 -16
-11z"/>
<path d="M584 349 c-10 -17 13 -36 27 -22 12 12 4 33 -11 33 -5 0 -12 -5 -16
-11z"/>
<path d="M664 349 c-10 -17 13 -36 27 -22 12 12 4 33 -11 33 -5 0 -12 -5 -16
-11z"/>
<path d="M744 349 c-10 -17 13 -36 27 -22 12 12 4 33 -11 33 -5 0 -12 -5 -16
-11z"/>
<path d="M824 349 c-10 -17 13 -36 27 -22 12 12 4 33 -11 33 -5 0 -12 -5 -16
-11z"/>
<path d="M904 349 c-10 -17 13 -36 27 -22 12 12 4 33 -11 33 -5 0 -12 -5 -16
-11z"/>
<path d="M984 349 c-10 -17 13 -36 27 -22 12 12 4 33 -11 33 -5 0 -12 -5 -16
-11z"/>
<path d="M1064 349 c-10 -17 13 -36 27 -22 12 12 4 33 -11 33 -5 0 -12 -5 -16
-11z"/>
<path d="M1144 349 c-10 -17 13 -36 27 -22 12 12 4 33 -11 33 -5 0 -12 -5 -16
-11z"/>
<path d="M1224 349 c-10 -17 13 -36 27 -22 12 12 4 33 -11 33 -5 0 -12 -5 -16
-11z"/>
<path d="M1304 349 c-10 -17 13 -36 27 -22 12 12 4 33 -11 33 -5 0 -12 -5 -16
-11z"/>
<path d="M1384 349 c-10 -17 13 -36 27 -22 12 12 4 33 -11 33 -5 0 -12 -5 -16
-11z"/>
<path d="M584 1349 c-10 -17 13 -36 27 -22 12 12 4 33 -11 33 -5 0 -12 -5 -16
-11z"/>
<path d="M664 1349 c-10 -17 13 -36 27 -22 12 12 4 33 -11 33 -5 0 -12 -5 -16
-11z"/>
<path d="M744 1349 c-10 -17 13 -36 27 -22 12 12 4 33 -11 33 -5 0 -12 -5 -16
-11z"/>
<path d="M824 1349 c-10 -17 13 -36 27 -22 12 12 4 33 -11 33 -5 0 -12 -5 -16
-11z"/>
<path d="M904 1349 c-10 -17 13 -36 27 -22 12 12 4 33 -11 33 -5 0 -12 -5 -16
-11z"/>
<path d="M984 1349 c-10 -17 13 -36 27 -22 12 12 4 33 -11 33 -5 0 -12 -5 -16
-11z"/>
<path d="M464 1249 c-10 -17 13 -36 27 -22 12 12 4 33 -11 33 -5 0 -12 -5 -16
-11z"/>
<path d="M544 1249 c-10 -17 13 -36 27 -22 12 12 4 33 -11 33 -5 0 -12 -5 -16
-11z"/>
<path d="M624 1249 c-10 -17 13 -36 27 -22 12 12 4 33 -11 33 -5 0 -12 -5 -16
-11z"/>
<path d="M704 1249 c-10 -17 13 -36 27 -22 12 12 4 33 -11 33 -5 0 -12 -5 -16
-11z"/>
<path d="M784 1249 c-10 -17 13 -36 27 -22 12 12 4 33 -11 33 -5 0 -12 -5 -16
-11z"/>
<path d="M864 1249 c-10 -17 13 -36 27 -22 12 12 4 33 -11 33 -5 0 -12 -5 -16
-11z"/>
<path d="M944 1249 c-10 -17 13 -36 27 -22 12 12 4 33 -11 33 -5 0 -12 -5 -16
-11z"/>
<path d="M1024 1249 c-10 -17 13 -36 27 -22 12 12 4 33 -11 33 -5 0 -12 -5
-16 -11z"/>
<path d="M1104 1249 c-10 -17 13 -36 27 -22 12 12 4 33 -11 33 -5 0 -12 -5
-16 -11z"/>
</g>
</svg>
